<svg id="SvgjsSvg1022" width="288" height="288" xmlns="http://www.w3.org/2000/svg" version="1.1" xmlns:xlink="http://www.w3.org/1999/xlink" xmlns:svgjs="http://svgjs.com/svgjs"><defs id="SvgjsDefs1023"></defs><g id="SvgjsG1024"><svg xmlns="http://www.w3.org/2000/svg" viewBox="0 0 512 512" width="288" height="288"><!--!Font Awesome Free 6.5.1 by @fontawesome - https://fontawesome.com License - https://fontawesome.com/license/free Copyright 2024 Fonticons, Inc.--><path d="M464 256A208 208 0 1 1 48 256a208 208 0 1 1 416 0zM256 0a256 256 0 1 0 0 512A256 256 0 1 0 256 0zM176.4 240a32 32 0 1 0 0-64 32 32 0 1 0 0 64zm192-32a32 32 0 1 0 -64 0 32 32 0 1 0 64 0zM184 328c-13.3 0-24 10.7-24 24s10.7 24 24 24H328c13.3 0 24-10.7 24-24s-10.7-24-24-24H184z" fill="#945462" class="color000 svgShape"></path></svg></g></svg>