<svg id="SvgjsSvg1032" width="288" height="288" xmlns="http://www.w3.org/2000/svg" version="1.1" xmlns:xlink="http://www.w3.org/1999/xlink" xmlns:svgjs="http://svgjs.com/svgjs"><defs id="SvgjsDefs1033"></defs><g id="SvgjsG1034"><svg xmlns="http://www.w3.org/2000/svg" viewBox="0 0 512 512" width="288" height="288"><!--!Font Awesome Free 6.5.1 by @fontawesome - https://fontawesome.com License - https://fontawesome.com/license/free Copyright 2024 Fonticons, Inc.--><path d="M464 256A208 208 0 1 0 48 256a208 208 0 1 0 416 0zM0 256a256 256 0 1 1 512 0A256 256 0 1 1 0 256zm256 32a64 64 0 1 1 0 128 64 64 0 1 1 0-128zM103 135c9.4-9.4 24.6-9.4 33.9 0l23 23 23-23c9.4-9.4 24.6-9.4 33.9 0s9.4 24.6 0 33.9l-23 23 23 23c9.4 9.4 9.4 24.6 0 33.9s-24.6 9.4-33.9 0l-23-23-23 23c-9.4 9.4-24.6 9.4-33.9 0s-9.4-24.6 0-33.9l23-23-23-23c-9.4-9.4-9.4-24.6 0-33.9zm192 0c9.4-9.4 24.6-9.4 33.9 0l23 23 23-23c9.4-9.4 24.6-9.4 33.9 0s9.4 24.6 0 33.9l-23 23 23 23c9.4 9.4 9.4 24.6 0 33.9s-24.6 9.4-33.9 0l-23-23-23 23c-9.4 9.4-24.6 9.4-33.9 0s-9.4-24.6 0-33.9l23-23-23-23c-9.4-9.4-9.4-24.6 0-33.9z" fill="#945462" class="color000 svgShape"></path></svg></g></svg>