<?xml version="1.0" encoding="utf-8"?>
<!-- Generator: Adobe Illustrator 24.0.1, SVG Export Plug-In . SVG Version: 6.00 Build 0)  -->
<svg version="1.1" id="Capa_1" xmlns="http://www.w3.org/2000/svg" xmlns:xlink="http://www.w3.org/1999/xlink" x="0px" y="0px"
	 viewBox="0 0 48 48" style="enable-background:new 0 0 48 48;" xml:space="preserve">
<style type="text/css">
	.st0{fill:#EDC8C7;}
</style>
<path class="st0" d="M9.7,40c-2.7,0-5-1-6.9-2.8C0.9,35.2,0,32.9,0,30.2s1-5,2.9-6.9c1.9-1.9,4.2-2.8,6.9-2.8c2.4,0,4.4,0.8,6.2,2.3
	s2.9,3.4,3.2,5.8h2.5L17.6,17H14v-3h9.4v3h-2.6l1.3,3.6h11.1L29.6,11h-5.3V8h5c0.8,0,1.5,0.2,2,0.5c0.6,0.4,1,0.9,1.2,1.7l3.8,10.4
	h1.9c2.7,0,5,0.9,6.9,2.8s2.8,4.1,2.8,6.8c0,2.7-0.9,5-2.8,6.9C43.3,39,41,40,38.3,40c-2.4,0-4.5-0.8-6.3-2.4
	c-1.8-1.6-2.9-3.6-3.3-6h-9.5c-0.4,2.4-1.4,4.4-3.2,6C14.2,39.2,12.1,40,9.7,40z M9.7,37c1.6,0,3-0.5,4.2-1.5s2-2.3,2.4-3.9h-5.9v-3
	h5.9c-0.4-1.5-1.2-2.7-2.4-3.6s-2.6-1.4-4.1-1.4c-1.9,0-3.5,0.6-4.8,1.9c-1.3,1.3-2,2.9-2,4.8c0,1.9,0.7,3.5,2,4.8S7.8,37,9.7,37z
	 M25,28.6h3.8c0.1-0.8,0.4-1.6,0.8-2.5c0.4-0.9,0.9-1.8,1.6-2.5h-8L25,28.6z M38.3,37c1.9,0,3.5-0.7,4.8-2c1.3-1.3,2-2.9,2-4.8
	c0-1.9-0.6-3.4-2-4.8c-1.3-1.3-2.9-1.9-4.8-1.9h-0.8l2,5.6l-2.8,1l-2.2-5.6c-1,0.6-1.7,1.4-2.2,2.4c-0.5,1-0.7,2.1-0.7,3.3
	c0,1.9,0.6,3.5,1.9,4.8C34.9,36.3,36.4,37,38.3,37z"/>
</svg>
