<svg id="Capa_1" data-name="Capa 1" xmlns="http://www.w3.org/2000/svg" viewBox="0 0 48 32"><defs><style>.cls-1{fill:#fff;}</style></defs><title>bike_white</title><path class="cls-1" d="M9.7,40a9.3,9.3,0,0,1-6.87-2.85A9.42,9.42,0,0,1,0,30.25a9.34,9.34,0,0,1,2.85-6.88,9.45,9.45,0,0,1,6.9-2.82A9.36,9.36,0,0,1,16,22.82,9.28,9.28,0,0,1,19.2,28.6h2.55L17.65,17H14V14h9.4v3H20.8l1.3,3.55H33.2L29.65,11H24.4V8h5a3.56,3.56,0,0,1,2,.55A3.27,3.27,0,0,1,32.6,10.2l3.8,10.35h1.9a9.4,9.4,0,0,1,6.86,2.81A9.24,9.24,0,0,1,48,30.16a9.64,9.64,0,0,1-2.81,6.94A9.54,9.54,0,0,1,32,37.6a10,10,0,0,1-3.31-6H19.2a9.84,9.84,0,0,1-3.22,6A9.12,9.12,0,0,1,9.7,40Zm0-3a6.19,6.19,0,0,0,4.18-1.55,7.53,7.53,0,0,0,2.37-3.85H10.3v-3h5.95A6.66,6.66,0,0,0,13.85,25a6.53,6.53,0,0,0-4.1-1.4A6.52,6.52,0,0,0,5,25.5a6.41,6.41,0,0,0-2,4.75A6.54,6.54,0,0,0,5,35,6.44,6.44,0,0,0,9.7,37ZM25,28.6h3.8a11.73,11.73,0,0,1,.78-2.55,8.32,8.32,0,0,1,1.57-2.5h-8ZM38.3,37a6.44,6.44,0,0,0,4.75-2,6.54,6.54,0,0,0,2-4.78,6.66,6.66,0,0,0-6.7-6.7h-.8l2,5.65-2.8.95-2.15-5.6A5.32,5.32,0,0,0,32.33,27a7.58,7.58,0,0,0-.73,3.3A6.54,6.54,0,0,0,33.55,35,6.44,6.44,0,0,0,38.3,37Z" transform="translate(0 -8)"/></svg>